<svg width="18" height="18" viewBox="0 0 18 18" fill="none" xmlns="http://www.w3.org/2000/svg">
<g id="vuesax/outline/trash">
<g id="trash">
<path id="Vector" d="M15.75 5.04752C15.735 5.04752 15.7125 5.04752 15.69 5.04752C11.7225 4.65002 7.7625 4.50002 3.84 4.89752L2.31 5.04752C1.995 5.07752 1.7175 4.85252 1.6875 4.53752C1.6575 4.22252 1.8825 3.95252 2.19 3.92252L3.72 3.77252C7.71 3.36752 11.7525 3.52502 15.8025 3.92252C16.11 3.95252 16.335 4.23002 16.305 4.53752C16.2825 4.83002 16.035 5.04752 15.75 5.04752Z" fill="#515151"/>
<path id="Vector_2" d="M6.37507 4.29002C6.34507 4.29002 6.31507 4.29002 6.27757 4.28252C5.97757 4.23002 5.76757 3.93752 5.82007 3.63752L5.98507 2.65502C6.10507 1.93502 6.27007 0.937523 8.01757 0.937523H9.98257C11.7376 0.937523 11.9026 1.97252 12.0151 2.66252L12.1801 3.63752C12.2326 3.94502 12.0226 4.23752 11.7226 4.28252C11.4151 4.33502 11.1226 4.12502 11.0776 3.82502L10.9126 2.85002C10.8076 2.19752 10.7851 2.07002 9.99007 2.07002H8.02507C7.23007 2.07002 7.21507 2.17502 7.10257 2.84252L6.93007 3.81752C6.88507 4.09502 6.64507 4.29002 6.37507 4.29002Z" fill="#515151"/>
<path id="Vector_3" d="M11.4075 17.0625H6.59255C3.97505 17.0625 3.87005 15.615 3.78755 14.445L3.30005 6.89253C3.27755 6.58503 3.51755 6.31503 3.82505 6.29253C4.14005 6.27753 4.40255 6.51003 4.42505 6.81753L4.91255 14.37C4.99505 15.51 5.02505 15.9375 6.59255 15.9375H11.4075C12.9825 15.9375 13.0125 15.51 13.0875 14.37L13.575 6.81753C13.5975 6.51003 13.8675 6.27753 14.175 6.29253C14.4825 6.31503 14.7225 6.57753 14.7 6.89253L14.2125 14.445C14.13 15.615 14.025 17.0625 11.4075 17.0625Z" fill="#515151"/>
<path id="Vector_4" d="M10.2451 12.9375H7.74756C7.44006 12.9375 7.18506 12.6825 7.18506 12.375C7.18506 12.0675 7.44006 11.8125 7.74756 11.8125H10.2451C10.5526 11.8125 10.8076 12.0675 10.8076 12.375C10.8076 12.6825 10.5526 12.9375 10.2451 12.9375Z" fill="#515151"/>
<path id="Vector_5" d="M10.875 9.93752H7.125C6.8175 9.93752 6.5625 9.68252 6.5625 9.37502C6.5625 9.06752 6.8175 8.81252 7.125 8.81252H10.875C11.1825 8.81252 11.4375 9.06752 11.4375 9.37502C11.4375 9.68252 11.1825 9.93752 10.875 9.93752Z" fill="#515151"/>
</g>
</g>
</svg>
